<svg width="20" height="20" viewBox="0 0 20 20" fill="none" xmlns="http://www.w3.org/2000/svg">
<g opacity="0.6" clip-path="url(#clip0_34717_2482)">
<path d="M12.2 10.0008C12.2 9.71177 12.143 9.42556 12.0324 9.15852C11.9218 8.89148 11.7597 8.64884 11.5553 8.44446C11.3509 8.24008 11.1083 8.07796 10.8412 7.96735C10.5742 7.85673 10.288 7.7998 9.99895 7.7998C9.70991 7.7998 9.4237 7.85673 9.15666 7.96735C8.88963 8.07796 8.64699 8.24008 8.44261 8.44446C8.23823 8.64884 8.0761 8.89148 7.96549 9.15852C7.85488 9.42556 7.79795 9.71177 7.79795 10.0008C7.79808 10.5845 8.0301 11.1443 8.44296 11.557C8.85582 11.9697 9.41571 12.2014 9.99945 12.2013C10.5832 12.2012 11.143 11.9692 11.5556 11.5563C11.9683 11.1434 12.2001 10.5835 12.2 9.9998L12.2 10.0008ZM14.8 10.0008C14.8001 10.2897 14.8571 10.5758 14.9678 10.8426C15.0785 11.1095 15.2406 11.352 15.445 11.5561C15.6494 11.7603 15.892 11.9223 16.159 12.0327C16.4259 12.1432 16.712 12.1999 17.001 12.1998C17.2899 12.1997 17.5759 12.1426 17.8428 12.032C18.1096 11.9213 18.3521 11.7591 18.5563 11.5547C18.7605 11.3504 18.9224 11.1078 19.0329 10.8408C19.1433 10.5738 19.2001 10.2877 19.2 9.9988C19.1997 9.41533 18.9676 8.85586 18.5549 8.44346C18.1421 8.03107 17.5824 7.79954 16.999 7.7998C16.4155 7.80007 15.856 8.03211 15.4436 8.44488C15.0312 8.85764 14.7997 9.41733 14.8 10.0008ZM5.19995 10.0008C5.19995 9.41706 4.96806 8.85723 4.55529 8.44446C4.14253 8.03169 3.58269 7.7998 2.99895 7.7998C2.41521 7.7998 1.85538 8.03169 1.44261 8.44446C1.02984 8.85723 0.797951 9.41706 0.797951 10.0008C0.797951 10.5845 1.02984 11.1444 1.44261 11.5571C1.85538 11.9699 2.41521 12.2018 2.99895 12.2018C3.58269 12.2018 4.14253 11.9699 4.55529 11.5571C4.96806 11.1444 5.19995 10.5845 5.19995 10.0008Z" fill="black"/>
</g>
<defs>
<clipPath id="clip0_34717_2482">
<rect width="20" height="20" fill="white" transform="translate(20) rotate(90)"/>
</clipPath>
</defs>
</svg>
